<mxfile host="Electron" modified="2024-07-06T10:57:02.774Z" agent="Mozilla/5.0 (Windows NT 10.0; Win64; x64) AppleWebKit/537.36 (KHTML, like Gecko) draw.io/24.0.4 Chrome/120.0.6099.109 Electron/28.1.0 Safari/537.36" etag="GVmG_mzT4OHj9FKai0Dd" version="24.0.4" type="device">
  <diagram id="23iRSUPoRavnBvh4doch" name="Page-1">
    <mxGraphModel dx="1354" dy="497" grid="1" gridSize="10" guides="1" tooltips="1" connect="1" arrows="1" fold="1" page="1" pageScale="1" pageWidth="827" pageHeight="1169" math="0" shadow="0">
      <root>
        <mxCell id="0" />
        <mxCell id="1" parent="0" />
        <mxCell id="kGqpuUsK58GUh6Y5eo5l-1" value="&lt;h1&gt;Royal House Database&lt;/h1&gt;" style="text;html=1;align=center;verticalAlign=middle;resizable=0;points=[];autosize=1;strokeColor=#0F8B8D;fillColor=#FAE5C7;flipH=0;flipV=1;rounded=1;glass=1;shadow=1;textShadow=1;labelBackgroundColor=none;fontColor=#143642;" parent="1" vertex="1">
          <mxGeometry x="-160" y="40" width="280" height="70" as="geometry" />
        </mxCell>
        <mxCell id="kGqpuUsK58GUh6Y5eo5l-160" value="&lt;font style=&quot;font-size: 16px;&quot;&gt;Bid&lt;/font&gt;" style="shape=table;startSize=40;container=1;collapsible=1;childLayout=tableLayout;fixedRows=1;rowLines=0;fontStyle=1;align=center;resizeLast=1;html=1;points=[[0,0,0,0,0],[0,0.25,0,0,0],[0,0.5,0,0,0],[0,0.75,0,0,0],[0,1,0,0,0],[0.25,0,0,0,0],[0.25,1,0,0,0],[0.5,0,0,0,0],[0.5,1,0,0,0],[0.75,0,0,0,0],[0.75,1,0,0,0],[1,0,0,0,0],[1,0.25,0,0,0],[1,0.5,0,0,0],[1,0.75,0,0,0],[1,1,0,0,0]];movable=1;resizable=1;rotatable=1;deletable=1;editable=1;locked=0;connectable=1;labelBorderColor=none;labelBackgroundColor=none;swimlaneFillColor=none;fillColor=#ffe6cc;strokeColor=default;flipV=0;flipH=0;verticalAlign=middle;swimlaneLine=1;shadow=0;textShadow=0;rounded=1;" parent="1" vertex="1">
          <mxGeometry x="-550" y="200" width="200" height="250" as="geometry">
            <mxRectangle x="120" y="200" width="100" height="30" as="alternateBounds" />
          </mxGeometry>
        </mxCell>
        <mxCell id="kGqpuUsK58GUh6Y5eo5l-161" value="" style="shape=tableRow;horizontal=0;startSize=0;swimlaneHead=0;swimlaneBody=0;fillColor=none;collapsible=0;dropTarget=0;points=[[0,0.5],[1,0.5]];portConstraint=eastwest;top=0;left=0;right=0;bottom=1;strokeColor=#0F8B8D;flipH=1;flipV=0;labelBackgroundColor=none;fontColor=#143642;swimlaneLine=1;shadow=0;textShadow=0;" parent="kGqpuUsK58GUh6Y5eo5l-160" vertex="1">
          <mxGeometry y="40" width="200" height="30" as="geometry" />
        </mxCell>
        <mxCell id="kGqpuUsK58GUh6Y5eo5l-162" value="PK" style="shape=partialRectangle;connectable=0;fillColor=none;top=0;left=0;bottom=0;right=0;fontStyle=1;overflow=hidden;whiteSpace=wrap;html=1;fontColor=#143642;strokeColor=#0F8B8D;labelBackgroundColor=none;" parent="kGqpuUsK58GUh6Y5eo5l-161" vertex="1">
          <mxGeometry width="40" height="30" as="geometry">
            <mxRectangle width="40" height="30" as="alternateBounds" />
          </mxGeometry>
        </mxCell>
        <mxCell id="kGqpuUsK58GUh6Y5eo5l-163" value="id: Bigint" style="shape=partialRectangle;connectable=1;top=0;left=0;bottom=0;right=0;align=left;spacingLeft=6;fontStyle=5;overflow=hidden;whiteSpace=wrap;html=1;container=1;movable=1;resizable=1;rotatable=1;deletable=1;editable=1;locked=0;fillColor=none;strokeColor=#0F8B8D;labelBackgroundColor=none;fontColor=#143642;" parent="kGqpuUsK58GUh6Y5eo5l-161" vertex="1">
          <mxGeometry x="40" width="160" height="30" as="geometry">
            <mxRectangle width="160" height="30" as="alternateBounds" />
          </mxGeometry>
        </mxCell>
        <mxCell id="kGqpuUsK58GUh6Y5eo5l-165" value="" style="shape=tableRow;horizontal=0;startSize=0;swimlaneHead=0;swimlaneBody=0;fillColor=none;collapsible=0;dropTarget=0;points=[[0,0.5],[1,0.5]];portConstraint=eastwest;top=0;left=0;right=0;bottom=0;strokeColor=#0F8B8D;flipH=1;flipV=1;labelBackgroundColor=none;fontColor=#143642;" parent="kGqpuUsK58GUh6Y5eo5l-160" vertex="1">
          <mxGeometry y="70" width="200" height="30" as="geometry" />
        </mxCell>
        <mxCell id="kGqpuUsK58GUh6Y5eo5l-166" value="" style="shape=partialRectangle;connectable=0;fillColor=none;top=0;left=0;bottom=0;right=0;editable=1;overflow=hidden;whiteSpace=wrap;html=1;labelBackgroundColor=none;strokeColor=#0F8B8D;fontColor=#143642;" parent="kGqpuUsK58GUh6Y5eo5l-165" vertex="1">
          <mxGeometry width="40" height="30" as="geometry">
            <mxRectangle width="40" height="30" as="alternateBounds" />
          </mxGeometry>
        </mxCell>
        <mxCell id="kGqpuUsK58GUh6Y5eo5l-167" value="name: VARCHAR" style="shape=partialRectangle;connectable=0;fillColor=none;top=0;left=0;bottom=0;right=0;align=left;spacingLeft=6;overflow=hidden;whiteSpace=wrap;html=1;flipH=1;flipV=1;labelBackgroundColor=none;strokeColor=#0F8B8D;fontColor=#143642;" parent="kGqpuUsK58GUh6Y5eo5l-165" vertex="1">
          <mxGeometry x="40" width="160" height="30" as="geometry">
            <mxRectangle width="160" height="30" as="alternateBounds" />
          </mxGeometry>
        </mxCell>
        <mxCell id="kGqpuUsK58GUh6Y5eo5l-177" value="" style="shape=tableRow;horizontal=0;startSize=0;swimlaneHead=0;swimlaneBody=0;fillColor=none;collapsible=0;dropTarget=0;points=[[0,0.5],[1,0.5]];portConstraint=eastwest;top=0;left=0;right=0;bottom=0;strokeColor=#0F8B8D;labelBackgroundColor=none;fontColor=#143642;" parent="kGqpuUsK58GUh6Y5eo5l-160" vertex="1">
          <mxGeometry y="100" width="200" height="30" as="geometry" />
        </mxCell>
        <mxCell id="kGqpuUsK58GUh6Y5eo5l-178" value="" style="shape=partialRectangle;connectable=0;fillColor=none;top=0;left=0;bottom=0;right=0;editable=1;overflow=hidden;whiteSpace=wrap;html=1;labelBackgroundColor=none;strokeColor=#0F8B8D;fontColor=#143642;" parent="kGqpuUsK58GUh6Y5eo5l-177" vertex="1">
          <mxGeometry width="40" height="30" as="geometry">
            <mxRectangle width="40" height="30" as="alternateBounds" />
          </mxGeometry>
        </mxCell>
        <mxCell id="kGqpuUsK58GUh6Y5eo5l-179" value="&lt;div&gt;phone: VARCHAR&lt;/div&gt;" style="shape=partialRectangle;connectable=0;fillColor=none;top=0;left=0;bottom=0;right=0;align=left;spacingLeft=6;overflow=hidden;whiteSpace=wrap;html=1;labelBackgroundColor=none;strokeColor=#0F8B8D;fontColor=#143642;" parent="kGqpuUsK58GUh6Y5eo5l-177" vertex="1">
          <mxGeometry x="40" width="160" height="30" as="geometry">
            <mxRectangle width="160" height="30" as="alternateBounds" />
          </mxGeometry>
        </mxCell>
        <mxCell id="kGqpuUsK58GUh6Y5eo5l-181" value="" style="shape=tableRow;horizontal=0;startSize=0;swimlaneHead=0;swimlaneBody=0;fillColor=none;collapsible=0;dropTarget=0;points=[[0,0.5],[1,0.5]];portConstraint=eastwest;top=0;left=0;right=0;bottom=0;strokeColor=#0F8B8D;labelBackgroundColor=none;fontColor=#143642;" parent="kGqpuUsK58GUh6Y5eo5l-160" vertex="1">
          <mxGeometry y="130" width="200" height="30" as="geometry" />
        </mxCell>
        <mxCell id="kGqpuUsK58GUh6Y5eo5l-182" value="" style="shape=partialRectangle;connectable=0;fillColor=none;top=0;left=0;bottom=0;right=0;editable=1;overflow=hidden;whiteSpace=wrap;html=1;labelBackgroundColor=none;strokeColor=#0F8B8D;fontColor=#143642;" parent="kGqpuUsK58GUh6Y5eo5l-181" vertex="1">
          <mxGeometry width="40" height="30" as="geometry">
            <mxRectangle width="40" height="30" as="alternateBounds" />
          </mxGeometry>
        </mxCell>
        <mxCell id="kGqpuUsK58GUh6Y5eo5l-183" value="email: VARCHAR" style="shape=partialRectangle;connectable=0;fillColor=none;top=0;left=0;bottom=0;right=0;align=left;spacingLeft=6;overflow=hidden;whiteSpace=wrap;html=1;labelBackgroundColor=none;strokeColor=#0F8B8D;fontColor=#143642;" parent="kGqpuUsK58GUh6Y5eo5l-181" vertex="1">
          <mxGeometry x="40" width="160" height="30" as="geometry">
            <mxRectangle width="160" height="30" as="alternateBounds" />
          </mxGeometry>
        </mxCell>
        <mxCell id="kGqpuUsK58GUh6Y5eo5l-185" value="" style="shape=tableRow;horizontal=0;startSize=0;swimlaneHead=0;swimlaneBody=0;fillColor=none;collapsible=0;dropTarget=0;points=[[0,0.5],[1,0.5]];portConstraint=eastwest;top=0;left=0;right=0;bottom=0;strokeColor=#0F8B8D;swimlaneFillColor=none;labelBackgroundColor=none;fontColor=#143642;" parent="kGqpuUsK58GUh6Y5eo5l-160" vertex="1">
          <mxGeometry y="160" width="200" height="30" as="geometry" />
        </mxCell>
        <mxCell id="kGqpuUsK58GUh6Y5eo5l-186" value="" style="shape=partialRectangle;connectable=0;fillColor=none;top=0;left=0;bottom=0;right=0;editable=1;overflow=hidden;whiteSpace=wrap;html=1;labelBackgroundColor=none;strokeColor=#0F8B8D;fontColor=#143642;" parent="kGqpuUsK58GUh6Y5eo5l-185" vertex="1">
          <mxGeometry width="40" height="30" as="geometry">
            <mxRectangle width="40" height="30" as="alternateBounds" />
          </mxGeometry>
        </mxCell>
        <mxCell id="kGqpuUsK58GUh6Y5eo5l-187" value="comment: VARCHAR" style="shape=partialRectangle;connectable=0;fillColor=none;top=0;left=0;bottom=0;right=0;align=left;spacingLeft=6;overflow=hidden;whiteSpace=wrap;html=1;labelBackgroundColor=none;strokeColor=#0F8B8D;fontColor=#143642;" parent="kGqpuUsK58GUh6Y5eo5l-185" vertex="1">
          <mxGeometry x="40" width="160" height="30" as="geometry">
            <mxRectangle width="160" height="30" as="alternateBounds" />
          </mxGeometry>
        </mxCell>
        <mxCell id="kGqpuUsK58GUh6Y5eo5l-189" value="" style="shape=tableRow;horizontal=0;startSize=0;swimlaneHead=0;swimlaneBody=0;fillColor=none;collapsible=0;dropTarget=0;points=[[0,0.5],[1,0.5]];portConstraint=eastwest;top=0;left=0;right=0;bottom=0;strokeColor=#0F8B8D;labelBackgroundColor=none;fontColor=#143642;" parent="kGqpuUsK58GUh6Y5eo5l-160" vertex="1">
          <mxGeometry y="190" width="200" height="30" as="geometry" />
        </mxCell>
        <mxCell id="kGqpuUsK58GUh6Y5eo5l-190" value="" style="shape=partialRectangle;connectable=0;fillColor=none;top=0;left=0;bottom=0;right=0;editable=1;overflow=hidden;whiteSpace=wrap;html=1;labelBackgroundColor=none;strokeColor=#0F8B8D;fontColor=#143642;" parent="kGqpuUsK58GUh6Y5eo5l-189" vertex="1">
          <mxGeometry width="40" height="30" as="geometry">
            <mxRectangle width="40" height="30" as="alternateBounds" />
          </mxGeometry>
        </mxCell>
        <mxCell id="kGqpuUsK58GUh6Y5eo5l-191" value="date: TIMESTAMP" style="shape=partialRectangle;connectable=0;fillColor=none;top=0;left=0;bottom=0;right=0;align=left;spacingLeft=6;overflow=hidden;whiteSpace=wrap;html=1;labelBackgroundColor=none;strokeColor=#0F8B8D;fontColor=#143642;" parent="kGqpuUsK58GUh6Y5eo5l-189" vertex="1">
          <mxGeometry x="40" width="160" height="30" as="geometry">
            <mxRectangle width="160" height="30" as="alternateBounds" />
          </mxGeometry>
        </mxCell>
        <mxCell id="w5wChOh7oLaNcaewbJr0-32" style="shape=tableRow;horizontal=0;startSize=0;swimlaneHead=0;swimlaneBody=0;fillColor=none;collapsible=0;dropTarget=0;points=[[0,0.5],[1,0.5]];portConstraint=eastwest;top=0;left=0;right=0;bottom=0;strokeColor=#0F8B8D;labelBackgroundColor=none;fontColor=#143642;" parent="kGqpuUsK58GUh6Y5eo5l-160" vertex="1">
          <mxGeometry y="220" width="200" height="30" as="geometry" />
        </mxCell>
        <mxCell id="w5wChOh7oLaNcaewbJr0-33" style="shape=partialRectangle;connectable=0;fillColor=none;top=0;left=0;bottom=0;right=0;editable=1;overflow=hidden;whiteSpace=wrap;html=1;labelBackgroundColor=none;strokeColor=#0F8B8D;fontColor=#143642;" parent="w5wChOh7oLaNcaewbJr0-32" vertex="1">
          <mxGeometry width="40" height="30" as="geometry">
            <mxRectangle width="40" height="30" as="alternateBounds" />
          </mxGeometry>
        </mxCell>
        <mxCell id="w5wChOh7oLaNcaewbJr0-34" value="status: VARCHAR" style="shape=partialRectangle;connectable=0;fillColor=none;top=0;left=0;bottom=0;right=0;align=left;spacingLeft=6;overflow=hidden;whiteSpace=wrap;html=1;labelBackgroundColor=none;strokeColor=#0F8B8D;fontColor=#143642;" parent="w5wChOh7oLaNcaewbJr0-32" vertex="1">
          <mxGeometry x="40" width="160" height="30" as="geometry">
            <mxRectangle width="160" height="30" as="alternateBounds" />
          </mxGeometry>
        </mxCell>
        <mxCell id="w5wChOh7oLaNcaewbJr0-1" value="&lt;font style=&quot;font-size: 16px;&quot;&gt;Address&lt;/font&gt;" style="shape=table;startSize=40;container=1;collapsible=1;childLayout=tableLayout;fixedRows=1;rowLines=0;fontStyle=1;align=center;resizeLast=1;html=1;fillColor=#ffe6cc;strokeColor=#000000;rounded=1;" parent="1" vertex="1">
          <mxGeometry x="-190" y="200" width="280" height="160" as="geometry" />
        </mxCell>
        <mxCell id="w5wChOh7oLaNcaewbJr0-2" value="" style="shape=tableRow;horizontal=0;startSize=0;swimlaneHead=0;swimlaneBody=0;fillColor=none;collapsible=0;dropTarget=0;points=[[0,0.5],[1,0.5]];portConstraint=eastwest;top=0;left=0;right=0;bottom=1;" parent="w5wChOh7oLaNcaewbJr0-1" vertex="1">
          <mxGeometry y="40" width="280" height="30" as="geometry" />
        </mxCell>
        <mxCell id="w5wChOh7oLaNcaewbJr0-3" value="PK" style="shape=partialRectangle;connectable=0;fillColor=none;top=0;left=0;bottom=0;right=0;fontStyle=1;overflow=hidden;whiteSpace=wrap;html=1;" parent="w5wChOh7oLaNcaewbJr0-2" vertex="1">
          <mxGeometry width="40" height="30" as="geometry">
            <mxRectangle width="40" height="30" as="alternateBounds" />
          </mxGeometry>
        </mxCell>
        <mxCell id="w5wChOh7oLaNcaewbJr0-4" value="id : BigInt" style="shape=partialRectangle;connectable=0;fillColor=none;top=0;left=0;bottom=0;right=0;align=left;spacingLeft=6;fontStyle=5;overflow=hidden;whiteSpace=wrap;html=1;" parent="w5wChOh7oLaNcaewbJr0-2" vertex="1">
          <mxGeometry x="40" width="240" height="30" as="geometry">
            <mxRectangle width="240" height="30" as="alternateBounds" />
          </mxGeometry>
        </mxCell>
        <mxCell id="w5wChOh7oLaNcaewbJr0-5" value="" style="shape=tableRow;horizontal=0;startSize=0;swimlaneHead=0;swimlaneBody=0;fillColor=none;collapsible=0;dropTarget=0;points=[[0,0.5],[1,0.5]];portConstraint=eastwest;top=0;left=0;right=0;bottom=0;" parent="w5wChOh7oLaNcaewbJr0-1" vertex="1">
          <mxGeometry y="70" width="280" height="30" as="geometry" />
        </mxCell>
        <mxCell id="w5wChOh7oLaNcaewbJr0-6" value="" style="shape=partialRectangle;connectable=0;fillColor=none;top=0;left=0;bottom=0;right=0;editable=1;overflow=hidden;whiteSpace=wrap;html=1;" parent="w5wChOh7oLaNcaewbJr0-5" vertex="1">
          <mxGeometry width="40" height="30" as="geometry">
            <mxRectangle width="40" height="30" as="alternateBounds" />
          </mxGeometry>
        </mxCell>
        <mxCell id="w5wChOh7oLaNcaewbJr0-7" value="city: VARCHAR NOT NULL" style="shape=partialRectangle;connectable=0;fillColor=none;top=0;left=0;bottom=0;right=0;align=left;spacingLeft=6;overflow=hidden;whiteSpace=wrap;html=1;" parent="w5wChOh7oLaNcaewbJr0-5" vertex="1">
          <mxGeometry x="40" width="240" height="30" as="geometry">
            <mxRectangle width="240" height="30" as="alternateBounds" />
          </mxGeometry>
        </mxCell>
        <mxCell id="w5wChOh7oLaNcaewbJr0-8" value="" style="shape=tableRow;horizontal=0;startSize=0;swimlaneHead=0;swimlaneBody=0;fillColor=none;collapsible=0;dropTarget=0;points=[[0,0.5],[1,0.5]];portConstraint=eastwest;top=0;left=0;right=0;bottom=0;" parent="w5wChOh7oLaNcaewbJr0-1" vertex="1">
          <mxGeometry y="100" width="280" height="30" as="geometry" />
        </mxCell>
        <mxCell id="w5wChOh7oLaNcaewbJr0-9" value="" style="shape=partialRectangle;connectable=0;fillColor=none;top=0;left=0;bottom=0;right=0;editable=1;overflow=hidden;whiteSpace=wrap;html=1;" parent="w5wChOh7oLaNcaewbJr0-8" vertex="1">
          <mxGeometry width="40" height="30" as="geometry">
            <mxRectangle width="40" height="30" as="alternateBounds" />
          </mxGeometry>
        </mxCell>
        <mxCell id="w5wChOh7oLaNcaewbJr0-10" value="street: VARCHAR&amp;nbsp;NOT NULL" style="shape=partialRectangle;connectable=0;fillColor=none;top=0;left=0;bottom=0;right=0;align=left;spacingLeft=6;overflow=hidden;whiteSpace=wrap;html=1;" parent="w5wChOh7oLaNcaewbJr0-8" vertex="1">
          <mxGeometry x="40" width="240" height="30" as="geometry">
            <mxRectangle width="240" height="30" as="alternateBounds" />
          </mxGeometry>
        </mxCell>
        <mxCell id="w5wChOh7oLaNcaewbJr0-11" value="" style="shape=tableRow;horizontal=0;startSize=0;swimlaneHead=0;swimlaneBody=0;fillColor=none;collapsible=0;dropTarget=0;points=[[0,0.5],[1,0.5]];portConstraint=eastwest;top=0;left=0;right=0;bottom=0;" parent="w5wChOh7oLaNcaewbJr0-1" vertex="1">
          <mxGeometry y="130" width="280" height="30" as="geometry" />
        </mxCell>
        <mxCell id="w5wChOh7oLaNcaewbJr0-12" value="" style="shape=partialRectangle;connectable=0;fillColor=none;top=0;left=0;bottom=0;right=0;editable=1;overflow=hidden;whiteSpace=wrap;html=1;" parent="w5wChOh7oLaNcaewbJr0-11" vertex="1">
          <mxGeometry width="40" height="30" as="geometry">
            <mxRectangle width="40" height="30" as="alternateBounds" />
          </mxGeometry>
        </mxCell>
        <mxCell id="w5wChOh7oLaNcaewbJr0-13" value="house_number: VARCHAR&amp;nbsp;&amp;nbsp;NOT NULL" style="shape=partialRectangle;connectable=0;fillColor=none;top=0;left=0;bottom=0;right=0;align=left;spacingLeft=6;overflow=hidden;whiteSpace=wrap;html=1;" parent="w5wChOh7oLaNcaewbJr0-11" vertex="1">
          <mxGeometry x="40" width="240" height="30" as="geometry">
            <mxRectangle width="240" height="30" as="alternateBounds" />
          </mxGeometry>
        </mxCell>
        <mxCell id="w5wChOh7oLaNcaewbJr0-52" value="&lt;font style=&quot;font-size: 16px;&quot;&gt;CompanyService&lt;/font&gt;" style="shape=table;startSize=40;container=1;collapsible=1;childLayout=tableLayout;fixedRows=1;rowLines=0;fontStyle=1;align=center;resizeLast=1;html=1;fillColor=#ffe6cc;strokeColor=#000000;rounded=1;" parent="1" vertex="1">
          <mxGeometry x="-590" y="520" width="240" height="220" as="geometry" />
        </mxCell>
        <mxCell id="w5wChOh7oLaNcaewbJr0-53" value="" style="shape=tableRow;horizontal=0;startSize=0;swimlaneHead=0;swimlaneBody=0;fillColor=none;collapsible=0;dropTarget=0;points=[[0,0.5],[1,0.5]];portConstraint=eastwest;top=0;left=0;right=0;bottom=1;" parent="w5wChOh7oLaNcaewbJr0-52" vertex="1">
          <mxGeometry y="40" width="240" height="30" as="geometry" />
        </mxCell>
        <mxCell id="w5wChOh7oLaNcaewbJr0-54" value="PK" style="shape=partialRectangle;connectable=0;fillColor=none;top=0;left=0;bottom=0;right=0;fontStyle=1;overflow=hidden;whiteSpace=wrap;html=1;" parent="w5wChOh7oLaNcaewbJr0-53" vertex="1">
          <mxGeometry width="40" height="30" as="geometry">
            <mxRectangle width="40" height="30" as="alternateBounds" />
          </mxGeometry>
        </mxCell>
        <mxCell id="w5wChOh7oLaNcaewbJr0-55" value="id : BigInt" style="shape=partialRectangle;connectable=0;fillColor=none;top=0;left=0;bottom=0;right=0;align=left;spacingLeft=6;fontStyle=5;overflow=hidden;whiteSpace=wrap;html=1;" parent="w5wChOh7oLaNcaewbJr0-53" vertex="1">
          <mxGeometry x="40" width="200" height="30" as="geometry">
            <mxRectangle width="200" height="30" as="alternateBounds" />
          </mxGeometry>
        </mxCell>
        <mxCell id="w5wChOh7oLaNcaewbJr0-56" value="" style="shape=tableRow;horizontal=0;startSize=0;swimlaneHead=0;swimlaneBody=0;fillColor=none;collapsible=0;dropTarget=0;points=[[0,0.5],[1,0.5]];portConstraint=eastwest;top=0;left=0;right=0;bottom=0;" parent="w5wChOh7oLaNcaewbJr0-52" vertex="1">
          <mxGeometry y="70" width="240" height="30" as="geometry" />
        </mxCell>
        <mxCell id="w5wChOh7oLaNcaewbJr0-57" value="" style="shape=partialRectangle;connectable=0;fillColor=none;top=0;left=0;bottom=0;right=0;editable=1;overflow=hidden;whiteSpace=wrap;html=1;" parent="w5wChOh7oLaNcaewbJr0-56" vertex="1">
          <mxGeometry width="40" height="30" as="geometry">
            <mxRectangle width="40" height="30" as="alternateBounds" />
          </mxGeometry>
        </mxCell>
        <mxCell id="w5wChOh7oLaNcaewbJr0-58" value="title: VARCHAR" style="shape=partialRectangle;connectable=0;fillColor=none;top=0;left=0;bottom=0;right=0;align=left;spacingLeft=6;overflow=hidden;whiteSpace=wrap;html=1;" parent="w5wChOh7oLaNcaewbJr0-56" vertex="1">
          <mxGeometry x="40" width="200" height="30" as="geometry">
            <mxRectangle width="200" height="30" as="alternateBounds" />
          </mxGeometry>
        </mxCell>
        <mxCell id="w5wChOh7oLaNcaewbJr0-59" value="" style="shape=tableRow;horizontal=0;startSize=0;swimlaneHead=0;swimlaneBody=0;fillColor=none;collapsible=0;dropTarget=0;points=[[0,0.5],[1,0.5]];portConstraint=eastwest;top=0;left=0;right=0;bottom=0;" parent="w5wChOh7oLaNcaewbJr0-52" vertex="1">
          <mxGeometry y="100" width="240" height="30" as="geometry" />
        </mxCell>
        <mxCell id="w5wChOh7oLaNcaewbJr0-60" value="" style="shape=partialRectangle;connectable=0;fillColor=none;top=0;left=0;bottom=0;right=0;editable=1;overflow=hidden;whiteSpace=wrap;html=1;" parent="w5wChOh7oLaNcaewbJr0-59" vertex="1">
          <mxGeometry width="40" height="30" as="geometry">
            <mxRectangle width="40" height="30" as="alternateBounds" />
          </mxGeometry>
        </mxCell>
        <mxCell id="w5wChOh7oLaNcaewbJr0-61" value="description: VARCHAR" style="shape=partialRectangle;connectable=0;fillColor=none;top=0;left=0;bottom=0;right=0;align=left;spacingLeft=6;overflow=hidden;whiteSpace=wrap;html=1;" parent="w5wChOh7oLaNcaewbJr0-59" vertex="1">
          <mxGeometry x="40" width="200" height="30" as="geometry">
            <mxRectangle width="200" height="30" as="alternateBounds" />
          </mxGeometry>
        </mxCell>
        <mxCell id="w5wChOh7oLaNcaewbJr0-62" value="" style="shape=tableRow;horizontal=0;startSize=0;swimlaneHead=0;swimlaneBody=0;fillColor=none;collapsible=0;dropTarget=0;points=[[0,0.5],[1,0.5]];portConstraint=eastwest;top=0;left=0;right=0;bottom=0;" parent="w5wChOh7oLaNcaewbJr0-52" vertex="1">
          <mxGeometry y="130" width="240" height="30" as="geometry" />
        </mxCell>
        <mxCell id="w5wChOh7oLaNcaewbJr0-63" value="" style="shape=partialRectangle;connectable=0;fillColor=none;top=0;left=0;bottom=0;right=0;editable=1;overflow=hidden;whiteSpace=wrap;html=1;" parent="w5wChOh7oLaNcaewbJr0-62" vertex="1">
          <mxGeometry width="40" height="30" as="geometry">
            <mxRectangle width="40" height="30" as="alternateBounds" />
          </mxGeometry>
        </mxCell>
        <mxCell id="w5wChOh7oLaNcaewbJr0-64" value="date: date" style="shape=partialRectangle;connectable=0;fillColor=none;top=0;left=0;bottom=0;right=0;align=left;spacingLeft=6;overflow=hidden;whiteSpace=wrap;html=1;" parent="w5wChOh7oLaNcaewbJr0-62" vertex="1">
          <mxGeometry x="40" width="200" height="30" as="geometry">
            <mxRectangle width="200" height="30" as="alternateBounds" />
          </mxGeometry>
        </mxCell>
        <mxCell id="w5wChOh7oLaNcaewbJr0-68" style="shape=tableRow;horizontal=0;startSize=0;swimlaneHead=0;swimlaneBody=0;fillColor=none;collapsible=0;dropTarget=0;points=[[0,0.5],[1,0.5]];portConstraint=eastwest;top=0;left=0;right=0;bottom=0;" parent="w5wChOh7oLaNcaewbJr0-52" vertex="1">
          <mxGeometry y="160" width="240" height="30" as="geometry" />
        </mxCell>
        <mxCell id="w5wChOh7oLaNcaewbJr0-69" style="shape=partialRectangle;connectable=0;fillColor=none;top=0;left=0;bottom=0;right=0;editable=1;overflow=hidden;whiteSpace=wrap;html=1;" parent="w5wChOh7oLaNcaewbJr0-68" vertex="1">
          <mxGeometry width="40" height="30" as="geometry">
            <mxRectangle width="40" height="30" as="alternateBounds" />
          </mxGeometry>
        </mxCell>
        <mxCell id="w5wChOh7oLaNcaewbJr0-70" value="status: VARCHAR" style="shape=partialRectangle;connectable=0;fillColor=none;top=0;left=0;bottom=0;right=0;align=left;spacingLeft=6;overflow=hidden;whiteSpace=wrap;html=1;" parent="w5wChOh7oLaNcaewbJr0-68" vertex="1">
          <mxGeometry x="40" width="200" height="30" as="geometry">
            <mxRectangle width="200" height="30" as="alternateBounds" />
          </mxGeometry>
        </mxCell>
        <mxCell id="w5wChOh7oLaNcaewbJr0-65" style="shape=tableRow;horizontal=0;startSize=0;swimlaneHead=0;swimlaneBody=0;fillColor=none;collapsible=0;dropTarget=0;points=[[0,0.5],[1,0.5]];portConstraint=eastwest;top=0;left=0;right=0;bottom=0;" parent="w5wChOh7oLaNcaewbJr0-52" vertex="1">
          <mxGeometry y="190" width="240" height="30" as="geometry" />
        </mxCell>
        <mxCell id="w5wChOh7oLaNcaewbJr0-66" style="shape=partialRectangle;connectable=0;fillColor=none;top=0;left=0;bottom=0;right=0;editable=1;overflow=hidden;whiteSpace=wrap;html=1;" parent="w5wChOh7oLaNcaewbJr0-65" vertex="1">
          <mxGeometry width="40" height="30" as="geometry">
            <mxRectangle width="40" height="30" as="alternateBounds" />
          </mxGeometry>
        </mxCell>
        <mxCell id="w5wChOh7oLaNcaewbJr0-67" value="service_image_path: VARCHAR" style="shape=partialRectangle;connectable=0;fillColor=none;top=0;left=0;bottom=0;right=0;align=left;spacingLeft=6;overflow=hidden;whiteSpace=wrap;html=1;" parent="w5wChOh7oLaNcaewbJr0-65" vertex="1">
          <mxGeometry x="40" width="200" height="30" as="geometry">
            <mxRectangle width="200" height="30" as="alternateBounds" />
          </mxGeometry>
        </mxCell>
        <mxCell id="w5wChOh7oLaNcaewbJr0-71" value="&lt;font style=&quot;font-size: 16px;&quot;&gt;Unit&lt;/font&gt;" style="shape=table;startSize=39;container=1;collapsible=1;childLayout=tableLayout;fixedRows=1;rowLines=0;fontStyle=1;align=center;resizeLast=1;html=1;whiteSpace=wrap;fillColor=#ffe6cc;strokeColor=#000000;rounded=1;" parent="1" vertex="1">
          <mxGeometry x="250" y="400" width="280" height="398" as="geometry" />
        </mxCell>
        <mxCell id="w5wChOh7oLaNcaewbJr0-72" value="" style="shape=tableRow;horizontal=0;startSize=0;swimlaneHead=0;swimlaneBody=0;fillColor=none;collapsible=0;dropTarget=0;points=[[0,0.5],[1,0.5]];portConstraint=eastwest;top=0;left=0;right=0;bottom=0;html=1;" parent="w5wChOh7oLaNcaewbJr0-71" vertex="1">
          <mxGeometry y="39" width="280" height="29" as="geometry" />
        </mxCell>
        <mxCell id="w5wChOh7oLaNcaewbJr0-73" value="PK" style="shape=partialRectangle;connectable=0;fillColor=none;top=0;left=0;bottom=0;right=0;fontStyle=1;overflow=hidden;html=1;whiteSpace=wrap;" parent="w5wChOh7oLaNcaewbJr0-72" vertex="1">
          <mxGeometry width="40" height="29" as="geometry">
            <mxRectangle width="40" height="29" as="alternateBounds" />
          </mxGeometry>
        </mxCell>
        <mxCell id="w5wChOh7oLaNcaewbJr0-74" value="&lt;span style=&quot;font-weight: 400;&quot;&gt;id: BIGINT&lt;/span&gt;" style="shape=partialRectangle;connectable=0;fillColor=none;top=0;left=0;bottom=0;right=0;align=left;spacingLeft=6;fontStyle=5;overflow=hidden;html=1;whiteSpace=wrap;" parent="w5wChOh7oLaNcaewbJr0-72" vertex="1">
          <mxGeometry x="40" width="240" height="29" as="geometry">
            <mxRectangle width="240" height="29" as="alternateBounds" />
          </mxGeometry>
        </mxCell>
        <mxCell id="w5wChOh7oLaNcaewbJr0-116" style="shape=tableRow;horizontal=0;startSize=0;swimlaneHead=0;swimlaneBody=0;fillColor=none;collapsible=0;dropTarget=0;points=[[0,0.5],[1,0.5]];portConstraint=eastwest;top=0;left=0;right=0;bottom=0;html=1;" parent="w5wChOh7oLaNcaewbJr0-71" vertex="1">
          <mxGeometry y="68" width="280" height="30" as="geometry" />
        </mxCell>
        <mxCell id="w5wChOh7oLaNcaewbJr0-117" value="FK" style="shape=partialRectangle;connectable=0;fillColor=none;top=0;left=0;bottom=0;right=0;fontStyle=1;overflow=hidden;html=1;whiteSpace=wrap;" parent="w5wChOh7oLaNcaewbJr0-116" vertex="1">
          <mxGeometry width="40" height="30" as="geometry">
            <mxRectangle width="40" height="30" as="alternateBounds" />
          </mxGeometry>
        </mxCell>
        <mxCell id="w5wChOh7oLaNcaewbJr0-118" value="&lt;span style=&quot;font-weight: 400;&quot;&gt;address_id: BIGINT&lt;/span&gt;" style="shape=partialRectangle;connectable=0;fillColor=none;top=0;left=0;bottom=0;right=0;align=left;spacingLeft=6;fontStyle=5;overflow=hidden;html=1;whiteSpace=wrap;" parent="w5wChOh7oLaNcaewbJr0-116" vertex="1">
          <mxGeometry x="40" width="240" height="30" as="geometry">
            <mxRectangle width="240" height="30" as="alternateBounds" />
          </mxGeometry>
        </mxCell>
        <mxCell id="w5wChOh7oLaNcaewbJr0-75" value="" style="shape=tableRow;horizontal=0;startSize=0;swimlaneHead=0;swimlaneBody=0;fillColor=none;collapsible=0;dropTarget=0;points=[[0,0.5],[1,0.5]];portConstraint=eastwest;top=0;left=0;right=0;bottom=1;html=1;" parent="w5wChOh7oLaNcaewbJr0-71" vertex="1">
          <mxGeometry y="98" width="280" height="30" as="geometry" />
        </mxCell>
        <mxCell id="w5wChOh7oLaNcaewbJr0-76" value="FK" style="shape=partialRectangle;connectable=0;fillColor=none;top=0;left=0;bottom=0;right=0;fontStyle=1;overflow=hidden;html=1;whiteSpace=wrap;" parent="w5wChOh7oLaNcaewbJr0-75" vertex="1">
          <mxGeometry width="40" height="30" as="geometry">
            <mxRectangle width="40" height="30" as="alternateBounds" />
          </mxGeometry>
        </mxCell>
        <mxCell id="w5wChOh7oLaNcaewbJr0-77" value="&lt;span style=&quot;font-weight: 400;&quot;&gt;new_building:_id BIGINT&lt;/span&gt;" style="shape=partialRectangle;connectable=0;fillColor=none;top=0;left=0;bottom=0;right=0;align=left;spacingLeft=6;fontStyle=5;overflow=hidden;html=1;whiteSpace=wrap;" parent="w5wChOh7oLaNcaewbJr0-75" vertex="1">
          <mxGeometry x="40" width="240" height="30" as="geometry">
            <mxRectangle width="240" height="30" as="alternateBounds" />
          </mxGeometry>
        </mxCell>
        <mxCell id="w5wChOh7oLaNcaewbJr0-78" value="" style="shape=tableRow;horizontal=0;startSize=0;swimlaneHead=0;swimlaneBody=0;fillColor=none;collapsible=0;dropTarget=0;points=[[0,0.5],[1,0.5]];portConstraint=eastwest;top=0;left=0;right=0;bottom=0;html=1;" parent="w5wChOh7oLaNcaewbJr0-71" vertex="1">
          <mxGeometry y="128" width="280" height="30" as="geometry" />
        </mxCell>
        <mxCell id="w5wChOh7oLaNcaewbJr0-79" value="" style="shape=partialRectangle;connectable=0;fillColor=none;top=0;left=0;bottom=0;right=0;editable=1;overflow=hidden;html=1;whiteSpace=wrap;" parent="w5wChOh7oLaNcaewbJr0-78" vertex="1">
          <mxGeometry width="40" height="30" as="geometry">
            <mxRectangle width="40" height="30" as="alternateBounds" />
          </mxGeometry>
        </mxCell>
        <mxCell id="w5wChOh7oLaNcaewbJr0-80" value="type: VARCHAR," style="shape=partialRectangle;connectable=0;fillColor=none;top=0;left=0;bottom=0;right=0;align=left;spacingLeft=6;overflow=hidden;html=1;whiteSpace=wrap;" parent="w5wChOh7oLaNcaewbJr0-78" vertex="1">
          <mxGeometry x="40" width="240" height="30" as="geometry">
            <mxRectangle width="240" height="30" as="alternateBounds" />
          </mxGeometry>
        </mxCell>
        <mxCell id="w5wChOh7oLaNcaewbJr0-81" value="" style="shape=tableRow;horizontal=0;startSize=0;swimlaneHead=0;swimlaneBody=0;fillColor=none;collapsible=0;dropTarget=0;points=[[0,0.5],[1,0.5]];portConstraint=eastwest;top=0;left=0;right=0;bottom=0;html=1;" parent="w5wChOh7oLaNcaewbJr0-71" vertex="1">
          <mxGeometry y="158" width="280" height="30" as="geometry" />
        </mxCell>
        <mxCell id="w5wChOh7oLaNcaewbJr0-82" value="" style="shape=partialRectangle;connectable=0;fillColor=none;top=0;left=0;bottom=0;right=0;editable=1;overflow=hidden;html=1;whiteSpace=wrap;" parent="w5wChOh7oLaNcaewbJr0-81" vertex="1">
          <mxGeometry width="40" height="30" as="geometry">
            <mxRectangle width="40" height="30" as="alternateBounds" />
          </mxGeometry>
        </mxCell>
        <mxCell id="w5wChOh7oLaNcaewbJr0-83" value="square: DECIMAL(9, 3) NOT NULL" style="shape=partialRectangle;connectable=0;fillColor=none;top=0;left=0;bottom=0;right=0;align=left;spacingLeft=6;overflow=hidden;html=1;whiteSpace=wrap;" parent="w5wChOh7oLaNcaewbJr0-81" vertex="1">
          <mxGeometry x="40" width="240" height="30" as="geometry">
            <mxRectangle width="240" height="30" as="alternateBounds" />
          </mxGeometry>
        </mxCell>
        <mxCell id="w5wChOh7oLaNcaewbJr0-104" style="shape=tableRow;horizontal=0;startSize=0;swimlaneHead=0;swimlaneBody=0;fillColor=none;collapsible=0;dropTarget=0;points=[[0,0.5],[1,0.5]];portConstraint=eastwest;top=0;left=0;right=0;bottom=0;html=1;" parent="w5wChOh7oLaNcaewbJr0-71" vertex="1">
          <mxGeometry y="188" width="280" height="30" as="geometry" />
        </mxCell>
        <mxCell id="w5wChOh7oLaNcaewbJr0-105" style="shape=partialRectangle;connectable=0;fillColor=none;top=0;left=0;bottom=0;right=0;editable=1;overflow=hidden;html=1;whiteSpace=wrap;" parent="w5wChOh7oLaNcaewbJr0-104" vertex="1">
          <mxGeometry width="40" height="30" as="geometry">
            <mxRectangle width="40" height="30" as="alternateBounds" />
          </mxGeometry>
        </mxCell>
        <mxCell id="w5wChOh7oLaNcaewbJr0-106" value="total_price: DECIMAL&amp;nbsp;&amp;nbsp;NOT NULL" style="shape=partialRectangle;connectable=0;fillColor=none;top=0;left=0;bottom=0;right=0;align=left;spacingLeft=6;overflow=hidden;html=1;whiteSpace=wrap;" parent="w5wChOh7oLaNcaewbJr0-104" vertex="1">
          <mxGeometry x="40" width="240" height="30" as="geometry">
            <mxRectangle width="240" height="30" as="alternateBounds" />
          </mxGeometry>
        </mxCell>
        <mxCell id="w5wChOh7oLaNcaewbJr0-101" style="shape=tableRow;horizontal=0;startSize=0;swimlaneHead=0;swimlaneBody=0;fillColor=none;collapsible=0;dropTarget=0;points=[[0,0.5],[1,0.5]];portConstraint=eastwest;top=0;left=0;right=0;bottom=0;html=1;" parent="w5wChOh7oLaNcaewbJr0-71" vertex="1">
          <mxGeometry y="218" width="280" height="30" as="geometry" />
        </mxCell>
        <mxCell id="w5wChOh7oLaNcaewbJr0-102" style="shape=partialRectangle;connectable=0;fillColor=none;top=0;left=0;bottom=0;right=0;editable=1;overflow=hidden;html=1;whiteSpace=wrap;" parent="w5wChOh7oLaNcaewbJr0-101" vertex="1">
          <mxGeometry width="40" height="30" as="geometry">
            <mxRectangle width="40" height="30" as="alternateBounds" />
          </mxGeometry>
        </mxCell>
        <mxCell id="w5wChOh7oLaNcaewbJr0-103" value="price_per_sq_m: DECIMAL&amp;nbsp;&amp;nbsp;NOT NULL" style="shape=partialRectangle;connectable=0;fillColor=none;top=0;left=0;bottom=0;right=0;align=left;spacingLeft=6;overflow=hidden;html=1;whiteSpace=wrap;" parent="w5wChOh7oLaNcaewbJr0-101" vertex="1">
          <mxGeometry x="40" width="240" height="30" as="geometry">
            <mxRectangle width="240" height="30" as="alternateBounds" />
          </mxGeometry>
        </mxCell>
        <mxCell id="w5wChOh7oLaNcaewbJr0-98" style="shape=tableRow;horizontal=0;startSize=0;swimlaneHead=0;swimlaneBody=0;fillColor=none;collapsible=0;dropTarget=0;points=[[0,0.5],[1,0.5]];portConstraint=eastwest;top=0;left=0;right=0;bottom=0;html=1;" parent="w5wChOh7oLaNcaewbJr0-71" vertex="1">
          <mxGeometry y="248" width="280" height="30" as="geometry" />
        </mxCell>
        <mxCell id="w5wChOh7oLaNcaewbJr0-99" style="shape=partialRectangle;connectable=0;fillColor=none;top=0;left=0;bottom=0;right=0;editable=1;overflow=hidden;html=1;whiteSpace=wrap;" parent="w5wChOh7oLaNcaewbJr0-98" vertex="1">
          <mxGeometry width="40" height="30" as="geometry">
            <mxRectangle width="40" height="30" as="alternateBounds" />
          </mxGeometry>
        </mxCell>
        <mxCell id="w5wChOh7oLaNcaewbJr0-100" value="rooms: INTEGER" style="shape=partialRectangle;connectable=0;fillColor=none;top=0;left=0;bottom=0;right=0;align=left;spacingLeft=6;overflow=hidden;html=1;whiteSpace=wrap;" parent="w5wChOh7oLaNcaewbJr0-98" vertex="1">
          <mxGeometry x="40" width="240" height="30" as="geometry">
            <mxRectangle width="240" height="30" as="alternateBounds" />
          </mxGeometry>
        </mxCell>
        <mxCell id="w5wChOh7oLaNcaewbJr0-95" style="shape=tableRow;horizontal=0;startSize=0;swimlaneHead=0;swimlaneBody=0;fillColor=none;collapsible=0;dropTarget=0;points=[[0,0.5],[1,0.5]];portConstraint=eastwest;top=0;left=0;right=0;bottom=0;html=1;" parent="w5wChOh7oLaNcaewbJr0-71" vertex="1">
          <mxGeometry y="278" width="280" height="30" as="geometry" />
        </mxCell>
        <mxCell id="w5wChOh7oLaNcaewbJr0-96" style="shape=partialRectangle;connectable=0;fillColor=none;top=0;left=0;bottom=0;right=0;editable=1;overflow=hidden;html=1;whiteSpace=wrap;" parent="w5wChOh7oLaNcaewbJr0-95" vertex="1">
          <mxGeometry width="40" height="30" as="geometry">
            <mxRectangle width="40" height="30" as="alternateBounds" />
          </mxGeometry>
        </mxCell>
        <mxCell id="w5wChOh7oLaNcaewbJr0-97" value="floor: INTEGER" style="shape=partialRectangle;connectable=0;fillColor=none;top=0;left=0;bottom=0;right=0;align=left;spacingLeft=6;overflow=hidden;html=1;whiteSpace=wrap;" parent="w5wChOh7oLaNcaewbJr0-95" vertex="1">
          <mxGeometry x="40" width="240" height="30" as="geometry">
            <mxRectangle width="240" height="30" as="alternateBounds" />
          </mxGeometry>
        </mxCell>
        <mxCell id="w5wChOh7oLaNcaewbJr0-92" style="shape=tableRow;horizontal=0;startSize=0;swimlaneHead=0;swimlaneBody=0;fillColor=none;collapsible=0;dropTarget=0;points=[[0,0.5],[1,0.5]];portConstraint=eastwest;top=0;left=0;right=0;bottom=0;html=1;" parent="w5wChOh7oLaNcaewbJr0-71" vertex="1">
          <mxGeometry y="308" width="280" height="30" as="geometry" />
        </mxCell>
        <mxCell id="w5wChOh7oLaNcaewbJr0-93" style="shape=partialRectangle;connectable=0;fillColor=none;top=0;left=0;bottom=0;right=0;editable=1;overflow=hidden;html=1;whiteSpace=wrap;" parent="w5wChOh7oLaNcaewbJr0-92" vertex="1">
          <mxGeometry width="40" height="30" as="geometry">
            <mxRectangle width="40" height="30" as="alternateBounds" />
          </mxGeometry>
        </mxCell>
        <mxCell id="w5wChOh7oLaNcaewbJr0-94" value="total_floors: INTEGER" style="shape=partialRectangle;connectable=0;fillColor=none;top=0;left=0;bottom=0;right=0;align=left;spacingLeft=6;overflow=hidden;html=1;whiteSpace=wrap;" parent="w5wChOh7oLaNcaewbJr0-92" vertex="1">
          <mxGeometry x="40" width="240" height="30" as="geometry">
            <mxRectangle width="240" height="30" as="alternateBounds" />
          </mxGeometry>
        </mxCell>
        <mxCell id="w5wChOh7oLaNcaewbJr0-89" style="shape=tableRow;horizontal=0;startSize=0;swimlaneHead=0;swimlaneBody=0;fillColor=none;collapsible=0;dropTarget=0;points=[[0,0.5],[1,0.5]];portConstraint=eastwest;top=0;left=0;right=0;bottom=0;html=1;" parent="w5wChOh7oLaNcaewbJr0-71" vertex="1">
          <mxGeometry y="338" width="280" height="30" as="geometry" />
        </mxCell>
        <mxCell id="w5wChOh7oLaNcaewbJr0-90" style="shape=partialRectangle;connectable=0;fillColor=none;top=0;left=0;bottom=0;right=0;editable=1;overflow=hidden;html=1;whiteSpace=wrap;" parent="w5wChOh7oLaNcaewbJr0-89" vertex="1">
          <mxGeometry width="40" height="30" as="geometry">
            <mxRectangle width="40" height="30" as="alternateBounds" />
          </mxGeometry>
        </mxCell>
        <mxCell id="w5wChOh7oLaNcaewbJr0-91" value="date: date" style="shape=partialRectangle;connectable=0;fillColor=none;top=0;left=0;bottom=0;right=0;align=left;spacingLeft=6;overflow=hidden;html=1;whiteSpace=wrap;" parent="w5wChOh7oLaNcaewbJr0-89" vertex="1">
          <mxGeometry x="40" width="240" height="30" as="geometry">
            <mxRectangle width="240" height="30" as="alternateBounds" />
          </mxGeometry>
        </mxCell>
        <mxCell id="w5wChOh7oLaNcaewbJr0-110" style="shape=tableRow;horizontal=0;startSize=0;swimlaneHead=0;swimlaneBody=0;fillColor=none;collapsible=0;dropTarget=0;points=[[0,0.5],[1,0.5]];portConstraint=eastwest;top=0;left=0;right=0;bottom=0;html=1;" parent="w5wChOh7oLaNcaewbJr0-71" vertex="1">
          <mxGeometry y="368" width="280" height="30" as="geometry" />
        </mxCell>
        <mxCell id="w5wChOh7oLaNcaewbJr0-111" style="shape=partialRectangle;connectable=0;fillColor=none;top=0;left=0;bottom=0;right=0;editable=1;overflow=hidden;html=1;whiteSpace=wrap;" parent="w5wChOh7oLaNcaewbJr0-110" vertex="1">
          <mxGeometry width="40" height="30" as="geometry">
            <mxRectangle width="40" height="30" as="alternateBounds" />
          </mxGeometry>
        </mxCell>
        <mxCell id="w5wChOh7oLaNcaewbJr0-112" value="&lt;div&gt;flat_number: INTEGER&lt;/div&gt;" style="shape=partialRectangle;connectable=0;fillColor=none;top=0;left=0;bottom=0;right=0;align=left;spacingLeft=6;overflow=hidden;html=1;whiteSpace=wrap;" parent="w5wChOh7oLaNcaewbJr0-110" vertex="1">
          <mxGeometry x="40" width="240" height="30" as="geometry">
            <mxRectangle width="240" height="30" as="alternateBounds" />
          </mxGeometry>
        </mxCell>
        <mxCell id="w5wChOh7oLaNcaewbJr0-119" value="NewBuilding" style="shape=table;startSize=40;container=1;collapsible=1;childLayout=tableLayout;fixedRows=1;rowLines=0;fontStyle=1;align=center;resizeLast=1;html=1;whiteSpace=wrap;fillColor=#ffe6cc;strokeColor=#000000;fontSize=16;rounded=1;" parent="1" vertex="1">
          <mxGeometry x="-190" y="440" width="280" height="400" as="geometry" />
        </mxCell>
        <mxCell id="w5wChOh7oLaNcaewbJr0-120" value="" style="shape=tableRow;horizontal=0;startSize=0;swimlaneHead=0;swimlaneBody=0;fillColor=none;collapsible=0;dropTarget=0;points=[[0,0.5],[1,0.5]];portConstraint=eastwest;top=0;left=0;right=0;bottom=0;html=1;" parent="w5wChOh7oLaNcaewbJr0-119" vertex="1">
          <mxGeometry y="40" width="280" height="30" as="geometry" />
        </mxCell>
        <mxCell id="w5wChOh7oLaNcaewbJr0-121" value="PK" style="shape=partialRectangle;connectable=0;fillColor=none;top=0;left=0;bottom=0;right=0;fontStyle=1;overflow=hidden;html=1;whiteSpace=wrap;" parent="w5wChOh7oLaNcaewbJr0-120" vertex="1">
          <mxGeometry width="40" height="30" as="geometry">
            <mxRectangle width="40" height="30" as="alternateBounds" />
          </mxGeometry>
        </mxCell>
        <mxCell id="w5wChOh7oLaNcaewbJr0-122" value="&lt;span style=&quot;font-weight: 400;&quot;&gt;id: BIGINT&lt;/span&gt;" style="shape=partialRectangle;connectable=0;fillColor=none;top=0;left=0;bottom=0;right=0;align=left;spacingLeft=6;fontStyle=5;overflow=hidden;html=1;whiteSpace=wrap;" parent="w5wChOh7oLaNcaewbJr0-120" vertex="1">
          <mxGeometry x="40" width="240" height="30" as="geometry">
            <mxRectangle width="240" height="30" as="alternateBounds" />
          </mxGeometry>
        </mxCell>
        <mxCell id="cSuiZXW0IyivlLcWfVJN-4" style="shape=tableRow;horizontal=0;startSize=0;swimlaneHead=0;swimlaneBody=0;fillColor=none;collapsible=0;dropTarget=0;points=[[0,0.5],[1,0.5]];portConstraint=eastwest;top=0;left=0;right=0;bottom=0;html=1;" parent="w5wChOh7oLaNcaewbJr0-119" vertex="1">
          <mxGeometry y="70" width="280" height="30" as="geometry" />
        </mxCell>
        <mxCell id="cSuiZXW0IyivlLcWfVJN-5" value="FK" style="shape=partialRectangle;connectable=0;fillColor=none;top=0;left=0;bottom=0;right=0;fontStyle=1;overflow=hidden;html=1;whiteSpace=wrap;" parent="cSuiZXW0IyivlLcWfVJN-4" vertex="1">
          <mxGeometry width="40" height="30" as="geometry">
            <mxRectangle width="40" height="30" as="alternateBounds" />
          </mxGeometry>
        </mxCell>
        <mxCell id="cSuiZXW0IyivlLcWfVJN-6" value="&lt;span style=&quot;font-weight: 400;&quot;&gt;address_id: BIGINT&lt;/span&gt;" style="shape=partialRectangle;connectable=0;fillColor=none;top=0;left=0;bottom=0;right=0;align=left;spacingLeft=6;fontStyle=5;overflow=hidden;html=1;whiteSpace=wrap;" parent="cSuiZXW0IyivlLcWfVJN-4" vertex="1">
          <mxGeometry x="40" width="240" height="30" as="geometry">
            <mxRectangle width="240" height="30" as="alternateBounds" />
          </mxGeometry>
        </mxCell>
        <mxCell id="w5wChOh7oLaNcaewbJr0-123" value="" style="shape=tableRow;horizontal=0;startSize=0;swimlaneHead=0;swimlaneBody=0;fillColor=none;collapsible=0;dropTarget=0;points=[[0,0.5],[1,0.5]];portConstraint=eastwest;top=0;left=0;right=0;bottom=1;html=1;" parent="w5wChOh7oLaNcaewbJr0-119" vertex="1">
          <mxGeometry y="100" width="280" height="30" as="geometry" />
        </mxCell>
        <mxCell id="w5wChOh7oLaNcaewbJr0-124" value="FK" style="shape=partialRectangle;connectable=0;fillColor=none;top=0;left=0;bottom=0;right=0;fontStyle=1;overflow=hidden;html=1;whiteSpace=wrap;" parent="w5wChOh7oLaNcaewbJr0-123" vertex="1">
          <mxGeometry width="40" height="30" as="geometry">
            <mxRectangle width="40" height="30" as="alternateBounds" />
          </mxGeometry>
        </mxCell>
        <mxCell id="w5wChOh7oLaNcaewbJr0-125" value="&lt;span style=&quot;font-weight: 400;&quot;&gt;descri[tion_id: BIGINT&lt;/span&gt;" style="shape=partialRectangle;connectable=0;fillColor=none;top=0;left=0;bottom=0;right=0;align=left;spacingLeft=6;fontStyle=5;overflow=hidden;html=1;whiteSpace=wrap;" parent="w5wChOh7oLaNcaewbJr0-123" vertex="1">
          <mxGeometry x="40" width="240" height="30" as="geometry">
            <mxRectangle width="240" height="30" as="alternateBounds" />
          </mxGeometry>
        </mxCell>
        <mxCell id="w5wChOh7oLaNcaewbJr0-126" value="" style="shape=tableRow;horizontal=0;startSize=0;swimlaneHead=0;swimlaneBody=0;fillColor=none;collapsible=0;dropTarget=0;points=[[0,0.5],[1,0.5]];portConstraint=eastwest;top=0;left=0;right=0;bottom=0;html=1;" parent="w5wChOh7oLaNcaewbJr0-119" vertex="1">
          <mxGeometry y="130" width="280" height="30" as="geometry" />
        </mxCell>
        <mxCell id="w5wChOh7oLaNcaewbJr0-127" value="" style="shape=partialRectangle;connectable=0;fillColor=none;top=0;left=0;bottom=0;right=0;editable=1;overflow=hidden;html=1;whiteSpace=wrap;" parent="w5wChOh7oLaNcaewbJr0-126" vertex="1">
          <mxGeometry width="40" height="30" as="geometry">
            <mxRectangle width="40" height="30" as="alternateBounds" />
          </mxGeometry>
        </mxCell>
        <mxCell id="w5wChOh7oLaNcaewbJr0-128" value="title: VARCHAR" style="shape=partialRectangle;connectable=0;fillColor=none;top=0;left=0;bottom=0;right=0;align=left;spacingLeft=6;overflow=hidden;html=1;whiteSpace=wrap;" parent="w5wChOh7oLaNcaewbJr0-126" vertex="1">
          <mxGeometry x="40" width="240" height="30" as="geometry">
            <mxRectangle width="240" height="30" as="alternateBounds" />
          </mxGeometry>
        </mxCell>
        <mxCell id="w5wChOh7oLaNcaewbJr0-129" value="" style="shape=tableRow;horizontal=0;startSize=0;swimlaneHead=0;swimlaneBody=0;fillColor=none;collapsible=0;dropTarget=0;points=[[0,0.5],[1,0.5]];portConstraint=eastwest;top=0;left=0;right=0;bottom=0;html=1;" parent="w5wChOh7oLaNcaewbJr0-119" vertex="1">
          <mxGeometry y="160" width="280" height="30" as="geometry" />
        </mxCell>
        <mxCell id="w5wChOh7oLaNcaewbJr0-130" value="" style="shape=partialRectangle;connectable=0;fillColor=none;top=0;left=0;bottom=0;right=0;editable=1;overflow=hidden;html=1;whiteSpace=wrap;" parent="w5wChOh7oLaNcaewbJr0-129" vertex="1">
          <mxGeometry width="40" height="30" as="geometry">
            <mxRectangle width="40" height="30" as="alternateBounds" />
          </mxGeometry>
        </mxCell>
        <mxCell id="w5wChOh7oLaNcaewbJr0-131" value="status: VARCHAR" style="shape=partialRectangle;connectable=0;top=0;left=0;bottom=0;right=0;align=left;spacingLeft=6;overflow=hidden;html=1;whiteSpace=wrap;fillColor=none;" parent="w5wChOh7oLaNcaewbJr0-129" vertex="1">
          <mxGeometry x="40" width="240" height="30" as="geometry">
            <mxRectangle width="240" height="30" as="alternateBounds" />
          </mxGeometry>
        </mxCell>
        <mxCell id="w5wChOh7oLaNcaewbJr0-142" style="shape=tableRow;horizontal=0;startSize=0;swimlaneHead=0;swimlaneBody=0;fillColor=none;collapsible=0;dropTarget=0;points=[[0,0.5],[1,0.5]];portConstraint=eastwest;top=0;left=0;right=0;bottom=0;html=1;" parent="w5wChOh7oLaNcaewbJr0-119" vertex="1">
          <mxGeometry y="190" width="280" height="30" as="geometry" />
        </mxCell>
        <mxCell id="w5wChOh7oLaNcaewbJr0-143" style="shape=partialRectangle;connectable=0;fillColor=none;top=0;left=0;bottom=0;right=0;editable=1;overflow=hidden;html=1;whiteSpace=wrap;" parent="w5wChOh7oLaNcaewbJr0-142" vertex="1">
          <mxGeometry width="40" height="30" as="geometry">
            <mxRectangle width="40" height="30" as="alternateBounds" />
          </mxGeometry>
        </mxCell>
        <mxCell id="w5wChOh7oLaNcaewbJr0-144" value="panorama_path: VARCHAR(1024)" style="shape=partialRectangle;connectable=0;top=0;left=0;bottom=0;right=0;align=left;spacingLeft=6;overflow=hidden;html=1;whiteSpace=wrap;fillColor=none;" parent="w5wChOh7oLaNcaewbJr0-142" vertex="1">
          <mxGeometry x="40" width="240" height="30" as="geometry">
            <mxRectangle width="240" height="30" as="alternateBounds" />
          </mxGeometry>
        </mxCell>
        <mxCell id="w5wChOh7oLaNcaewbJr0-148" style="shape=tableRow;horizontal=0;startSize=0;swimlaneHead=0;swimlaneBody=0;fillColor=none;collapsible=0;dropTarget=0;points=[[0,0.5],[1,0.5]];portConstraint=eastwest;top=0;left=0;right=0;bottom=0;html=1;" parent="w5wChOh7oLaNcaewbJr0-119" vertex="1">
          <mxGeometry y="220" width="280" height="30" as="geometry" />
        </mxCell>
        <mxCell id="w5wChOh7oLaNcaewbJr0-149" style="shape=partialRectangle;connectable=0;fillColor=none;top=0;left=0;bottom=0;right=0;editable=1;overflow=hidden;html=1;whiteSpace=wrap;" parent="w5wChOh7oLaNcaewbJr0-148" vertex="1">
          <mxGeometry width="40" height="30" as="geometry">
            <mxRectangle width="40" height="30" as="alternateBounds" />
          </mxGeometry>
        </mxCell>
        <mxCell id="w5wChOh7oLaNcaewbJr0-150" value="latitude: DOUBLE PRECISION" style="shape=partialRectangle;connectable=0;top=0;left=0;bottom=0;right=0;align=left;spacingLeft=6;overflow=hidden;html=1;whiteSpace=wrap;fillColor=none;" parent="w5wChOh7oLaNcaewbJr0-148" vertex="1">
          <mxGeometry x="40" width="240" height="30" as="geometry">
            <mxRectangle width="240" height="30" as="alternateBounds" />
          </mxGeometry>
        </mxCell>
        <mxCell id="cSuiZXW0IyivlLcWfVJN-7" style="shape=tableRow;horizontal=0;startSize=0;swimlaneHead=0;swimlaneBody=0;fillColor=none;collapsible=0;dropTarget=0;points=[[0,0.5],[1,0.5]];portConstraint=eastwest;top=0;left=0;right=0;bottom=0;html=1;" parent="w5wChOh7oLaNcaewbJr0-119" vertex="1">
          <mxGeometry y="250" width="280" height="30" as="geometry" />
        </mxCell>
        <mxCell id="cSuiZXW0IyivlLcWfVJN-8" style="shape=partialRectangle;connectable=0;fillColor=none;top=0;left=0;bottom=0;right=0;editable=1;overflow=hidden;html=1;whiteSpace=wrap;" parent="cSuiZXW0IyivlLcWfVJN-7" vertex="1">
          <mxGeometry width="40" height="30" as="geometry">
            <mxRectangle width="40" height="30" as="alternateBounds" />
          </mxGeometry>
        </mxCell>
        <mxCell id="cSuiZXW0IyivlLcWfVJN-9" value="longitude: DOUBLE PRECISION" style="shape=partialRectangle;connectable=0;top=0;left=0;bottom=0;right=0;align=left;spacingLeft=6;overflow=hidden;html=1;whiteSpace=wrap;fillColor=none;" parent="cSuiZXW0IyivlLcWfVJN-7" vertex="1">
          <mxGeometry x="40" width="240" height="30" as="geometry">
            <mxRectangle width="240" height="30" as="alternateBounds" />
          </mxGeometry>
        </mxCell>
        <mxCell id="BjgQt4Qa6BmJcvyjdyvB-22" style="shape=tableRow;horizontal=0;startSize=0;swimlaneHead=0;swimlaneBody=0;fillColor=none;collapsible=0;dropTarget=0;points=[[0,0.5],[1,0.5]];portConstraint=eastwest;top=0;left=0;right=0;bottom=0;html=1;" parent="w5wChOh7oLaNcaewbJr0-119" vertex="1">
          <mxGeometry y="280" width="280" height="30" as="geometry" />
        </mxCell>
        <mxCell id="BjgQt4Qa6BmJcvyjdyvB-23" style="shape=partialRectangle;connectable=0;fillColor=none;top=0;left=0;bottom=0;right=0;editable=1;overflow=hidden;html=1;whiteSpace=wrap;" parent="BjgQt4Qa6BmJcvyjdyvB-22" vertex="1">
          <mxGeometry width="40" height="30" as="geometry">
            <mxRectangle width="40" height="30" as="alternateBounds" />
          </mxGeometry>
        </mxCell>
        <mxCell id="BjgQt4Qa6BmJcvyjdyvB-24" value="about_id: VARCHAR(1024)" style="shape=partialRectangle;connectable=0;top=0;left=0;bottom=0;right=0;align=left;spacingLeft=6;overflow=hidden;html=1;whiteSpace=wrap;fillColor=none;" parent="BjgQt4Qa6BmJcvyjdyvB-22" vertex="1">
          <mxGeometry x="40" width="240" height="30" as="geometry">
            <mxRectangle width="240" height="30" as="alternateBounds" />
          </mxGeometry>
        </mxCell>
        <mxCell id="BjgQt4Qa6BmJcvyjdyvB-19" style="shape=tableRow;horizontal=0;startSize=0;swimlaneHead=0;swimlaneBody=0;fillColor=none;collapsible=0;dropTarget=0;points=[[0,0.5],[1,0.5]];portConstraint=eastwest;top=0;left=0;right=0;bottom=0;html=1;" parent="w5wChOh7oLaNcaewbJr0-119" vertex="1">
          <mxGeometry y="310" width="280" height="30" as="geometry" />
        </mxCell>
        <mxCell id="BjgQt4Qa6BmJcvyjdyvB-20" style="shape=partialRectangle;connectable=0;fillColor=none;top=0;left=0;bottom=0;right=0;editable=1;overflow=hidden;html=1;whiteSpace=wrap;" parent="BjgQt4Qa6BmJcvyjdyvB-19" vertex="1">
          <mxGeometry width="40" height="30" as="geometry">
            <mxRectangle width="40" height="30" as="alternateBounds" />
          </mxGeometry>
        </mxCell>
        <mxCell id="BjgQt4Qa6BmJcvyjdyvB-21" value="location_id: VARCHAR(1024)" style="shape=partialRectangle;connectable=0;top=0;left=0;bottom=0;right=0;align=left;spacingLeft=6;overflow=hidden;html=1;whiteSpace=wrap;fillColor=none;" parent="BjgQt4Qa6BmJcvyjdyvB-19" vertex="1">
          <mxGeometry x="40" width="240" height="30" as="geometry">
            <mxRectangle width="240" height="30" as="alternateBounds" />
          </mxGeometry>
        </mxCell>
        <mxCell id="BjgQt4Qa6BmJcvyjdyvB-16" style="shape=tableRow;horizontal=0;startSize=0;swimlaneHead=0;swimlaneBody=0;fillColor=none;collapsible=0;dropTarget=0;points=[[0,0.5],[1,0.5]];portConstraint=eastwest;top=0;left=0;right=0;bottom=0;html=1;" parent="w5wChOh7oLaNcaewbJr0-119" vertex="1">
          <mxGeometry y="340" width="280" height="30" as="geometry" />
        </mxCell>
        <mxCell id="BjgQt4Qa6BmJcvyjdyvB-17" style="shape=partialRectangle;connectable=0;fillColor=none;top=0;left=0;bottom=0;right=0;editable=1;overflow=hidden;html=1;whiteSpace=wrap;" parent="BjgQt4Qa6BmJcvyjdyvB-16" vertex="1">
          <mxGeometry width="40" height="30" as="geometry">
            <mxRectangle width="40" height="30" as="alternateBounds" />
          </mxGeometry>
        </mxCell>
        <mxCell id="BjgQt4Qa6BmJcvyjdyvB-18" value="infrastructure_desc: VARCHAR(1024)" style="shape=partialRectangle;connectable=0;top=0;left=0;bottom=0;right=0;align=left;spacingLeft=6;overflow=hidden;html=1;whiteSpace=wrap;fillColor=none;" parent="BjgQt4Qa6BmJcvyjdyvB-16" vertex="1">
          <mxGeometry x="40" width="240" height="30" as="geometry">
            <mxRectangle width="240" height="30" as="alternateBounds" />
          </mxGeometry>
        </mxCell>
        <mxCell id="BjgQt4Qa6BmJcvyjdyvB-13" style="shape=tableRow;horizontal=0;startSize=0;swimlaneHead=0;swimlaneBody=0;fillColor=none;collapsible=0;dropTarget=0;points=[[0,0.5],[1,0.5]];portConstraint=eastwest;top=0;left=0;right=0;bottom=0;html=1;" parent="w5wChOh7oLaNcaewbJr0-119" vertex="1">
          <mxGeometry y="370" width="280" height="30" as="geometry" />
        </mxCell>
        <mxCell id="BjgQt4Qa6BmJcvyjdyvB-14" style="shape=partialRectangle;connectable=0;fillColor=none;top=0;left=0;bottom=0;right=0;editable=1;overflow=hidden;html=1;whiteSpace=wrap;" parent="BjgQt4Qa6BmJcvyjdyvB-13" vertex="1">
          <mxGeometry width="40" height="30" as="geometry">
            <mxRectangle width="40" height="30" as="alternateBounds" />
          </mxGeometry>
        </mxCell>
        <mxCell id="BjgQt4Qa6BmJcvyjdyvB-15" value="flats_desc: VARCHAR(1024)" style="shape=partialRectangle;connectable=0;top=0;left=0;bottom=0;right=0;align=left;spacingLeft=6;overflow=hidden;html=1;whiteSpace=wrap;fillColor=none;" parent="BjgQt4Qa6BmJcvyjdyvB-13" vertex="1">
          <mxGeometry x="40" width="240" height="30" as="geometry">
            <mxRectangle width="240" height="30" as="alternateBounds" />
          </mxGeometry>
        </mxCell>
        <mxCell id="w5wChOh7oLaNcaewbJr0-155" value="InfoGraphic" style="shape=table;startSize=40;container=1;collapsible=1;childLayout=tableLayout;fixedRows=1;rowLines=0;fontStyle=1;align=center;resizeLast=1;html=1;whiteSpace=wrap;fontSize=16;fillColor=#ffe6cc;strokeColor=#000000;rounded=1;" parent="1" vertex="1">
          <mxGeometry x="-590" y="840" width="320" height="190" as="geometry" />
        </mxCell>
        <mxCell id="w5wChOh7oLaNcaewbJr0-156" value="" style="shape=tableRow;horizontal=0;startSize=0;swimlaneHead=0;swimlaneBody=0;fillColor=none;collapsible=0;dropTarget=0;points=[[0,0.5],[1,0.5]];portConstraint=eastwest;top=0;left=0;right=0;bottom=0;html=1;" parent="w5wChOh7oLaNcaewbJr0-155" vertex="1">
          <mxGeometry y="40" width="320" height="30" as="geometry" />
        </mxCell>
        <mxCell id="w5wChOh7oLaNcaewbJr0-157" value="PK" style="shape=partialRectangle;connectable=0;fillColor=none;top=0;left=0;bottom=0;right=0;fontStyle=1;overflow=hidden;html=1;whiteSpace=wrap;" parent="w5wChOh7oLaNcaewbJr0-156" vertex="1">
          <mxGeometry width="40" height="30" as="geometry">
            <mxRectangle width="40" height="30" as="alternateBounds" />
          </mxGeometry>
        </mxCell>
        <mxCell id="w5wChOh7oLaNcaewbJr0-158" value="&lt;span style=&quot;font-weight: 400;&quot;&gt;id: BIGINT&lt;/span&gt;" style="shape=partialRectangle;connectable=0;fillColor=none;top=0;left=0;bottom=0;right=0;align=left;spacingLeft=6;fontStyle=5;overflow=hidden;html=1;whiteSpace=wrap;" parent="w5wChOh7oLaNcaewbJr0-156" vertex="1">
          <mxGeometry x="40" width="280" height="30" as="geometry">
            <mxRectangle width="280" height="30" as="alternateBounds" />
          </mxGeometry>
        </mxCell>
        <mxCell id="w5wChOh7oLaNcaewbJr0-159" value="" style="shape=tableRow;horizontal=0;startSize=0;swimlaneHead=0;swimlaneBody=0;fillColor=none;collapsible=0;dropTarget=0;points=[[0,0.5],[1,0.5]];portConstraint=eastwest;top=0;left=0;right=0;bottom=1;html=1;" parent="w5wChOh7oLaNcaewbJr0-155" vertex="1">
          <mxGeometry y="70" width="320" height="30" as="geometry" />
        </mxCell>
        <mxCell id="w5wChOh7oLaNcaewbJr0-160" value="FK" style="shape=partialRectangle;connectable=0;fillColor=none;top=0;left=0;bottom=0;right=0;fontStyle=1;overflow=hidden;html=1;whiteSpace=wrap;" parent="w5wChOh7oLaNcaewbJr0-159" vertex="1">
          <mxGeometry width="40" height="30" as="geometry">
            <mxRectangle width="40" height="30" as="alternateBounds" />
          </mxGeometry>
        </mxCell>
        <mxCell id="w5wChOh7oLaNcaewbJr0-161" value="&lt;span style=&quot;font-weight: 400;&quot;&gt;new_building_id: BIGINT&lt;/span&gt;" style="shape=partialRectangle;connectable=0;fillColor=none;top=0;left=0;bottom=0;right=0;align=left;spacingLeft=6;fontStyle=5;overflow=hidden;html=1;whiteSpace=wrap;" parent="w5wChOh7oLaNcaewbJr0-159" vertex="1">
          <mxGeometry x="40" width="280" height="30" as="geometry">
            <mxRectangle width="280" height="30" as="alternateBounds" />
          </mxGeometry>
        </mxCell>
        <mxCell id="w5wChOh7oLaNcaewbJr0-162" value="" style="shape=tableRow;horizontal=0;startSize=0;swimlaneHead=0;swimlaneBody=0;fillColor=none;collapsible=0;dropTarget=0;points=[[0,0.5],[1,0.5]];portConstraint=eastwest;top=0;left=0;right=0;bottom=0;html=1;" parent="w5wChOh7oLaNcaewbJr0-155" vertex="1">
          <mxGeometry y="100" width="320" height="30" as="geometry" />
        </mxCell>
        <mxCell id="w5wChOh7oLaNcaewbJr0-163" value="" style="shape=partialRectangle;connectable=0;fillColor=none;top=0;left=0;bottom=0;right=0;editable=1;overflow=hidden;html=1;whiteSpace=wrap;" parent="w5wChOh7oLaNcaewbJr0-162" vertex="1">
          <mxGeometry width="40" height="30" as="geometry">
            <mxRectangle width="40" height="30" as="alternateBounds" />
          </mxGeometry>
        </mxCell>
        <mxCell id="w5wChOh7oLaNcaewbJr0-164" value="path: VARCHAR(1024) NOT NULL UNIQUE" style="shape=partialRectangle;connectable=0;fillColor=none;top=0;left=0;bottom=0;right=0;align=left;spacingLeft=6;overflow=hidden;html=1;whiteSpace=wrap;" parent="w5wChOh7oLaNcaewbJr0-162" vertex="1">
          <mxGeometry x="40" width="280" height="30" as="geometry">
            <mxRectangle width="280" height="30" as="alternateBounds" />
          </mxGeometry>
        </mxCell>
        <mxCell id="w5wChOh7oLaNcaewbJr0-165" value="" style="shape=tableRow;horizontal=0;startSize=0;swimlaneHead=0;swimlaneBody=0;fillColor=none;collapsible=0;dropTarget=0;points=[[0,0.5],[1,0.5]];portConstraint=eastwest;top=0;left=0;right=0;bottom=0;html=1;" parent="w5wChOh7oLaNcaewbJr0-155" vertex="1">
          <mxGeometry y="130" width="320" height="30" as="geometry" />
        </mxCell>
        <mxCell id="w5wChOh7oLaNcaewbJr0-166" value="" style="shape=partialRectangle;connectable=0;fillColor=none;top=0;left=0;bottom=0;right=0;editable=1;overflow=hidden;html=1;whiteSpace=wrap;" parent="w5wChOh7oLaNcaewbJr0-165" vertex="1">
          <mxGeometry width="40" height="30" as="geometry">
            <mxRectangle width="40" height="30" as="alternateBounds" />
          </mxGeometry>
        </mxCell>
        <mxCell id="w5wChOh7oLaNcaewbJr0-167" value="description: VARCHAR" style="shape=partialRectangle;connectable=0;fillColor=none;top=0;left=0;bottom=0;right=0;align=left;spacingLeft=6;overflow=hidden;html=1;whiteSpace=wrap;" parent="w5wChOh7oLaNcaewbJr0-165" vertex="1">
          <mxGeometry x="40" width="280" height="30" as="geometry">
            <mxRectangle width="280" height="30" as="alternateBounds" />
          </mxGeometry>
        </mxCell>
        <mxCell id="cSuiZXW0IyivlLcWfVJN-33" style="shape=tableRow;horizontal=0;startSize=0;swimlaneHead=0;swimlaneBody=0;fillColor=none;collapsible=0;dropTarget=0;points=[[0,0.5],[1,0.5]];portConstraint=eastwest;top=0;left=0;right=0;bottom=0;html=1;" parent="w5wChOh7oLaNcaewbJr0-155" vertex="1">
          <mxGeometry y="160" width="320" height="30" as="geometry" />
        </mxCell>
        <mxCell id="cSuiZXW0IyivlLcWfVJN-34" style="shape=partialRectangle;connectable=0;fillColor=none;top=0;left=0;bottom=0;right=0;editable=1;overflow=hidden;html=1;whiteSpace=wrap;" parent="cSuiZXW0IyivlLcWfVJN-33" vertex="1">
          <mxGeometry width="40" height="30" as="geometry">
            <mxRectangle width="40" height="30" as="alternateBounds" />
          </mxGeometry>
        </mxCell>
        <mxCell id="cSuiZXW0IyivlLcWfVJN-35" value="type: VARCHAR" style="shape=partialRectangle;connectable=0;fillColor=none;top=0;left=0;bottom=0;right=0;align=left;spacingLeft=6;overflow=hidden;html=1;whiteSpace=wrap;" parent="cSuiZXW0IyivlLcWfVJN-33" vertex="1">
          <mxGeometry x="40" width="280" height="30" as="geometry">
            <mxRectangle width="280" height="30" as="alternateBounds" />
          </mxGeometry>
        </mxCell>
        <mxCell id="w5wChOh7oLaNcaewbJr0-169" value="Image" style="shape=table;startSize=40;container=1;collapsible=1;childLayout=tableLayout;fixedRows=1;rowLines=0;fontStyle=1;align=center;resizeLast=1;html=1;whiteSpace=wrap;fontSize=16;fillColor=#ffe6cc;strokeColor=#000000;rounded=1;" parent="1" vertex="1">
          <mxGeometry x="250" y="200" width="320" height="130" as="geometry" />
        </mxCell>
        <mxCell id="w5wChOh7oLaNcaewbJr0-170" value="" style="shape=tableRow;horizontal=0;startSize=0;swimlaneHead=0;swimlaneBody=0;fillColor=none;collapsible=0;dropTarget=0;points=[[0,0.5],[1,0.5]];portConstraint=eastwest;top=0;left=0;right=0;bottom=0;html=1;" parent="w5wChOh7oLaNcaewbJr0-169" vertex="1">
          <mxGeometry y="40" width="320" height="30" as="geometry" />
        </mxCell>
        <mxCell id="w5wChOh7oLaNcaewbJr0-171" value="PK" style="shape=partialRectangle;connectable=0;fillColor=none;top=0;left=0;bottom=0;right=0;fontStyle=1;overflow=hidden;html=1;whiteSpace=wrap;" parent="w5wChOh7oLaNcaewbJr0-170" vertex="1">
          <mxGeometry width="40" height="30" as="geometry">
            <mxRectangle width="40" height="30" as="alternateBounds" />
          </mxGeometry>
        </mxCell>
        <mxCell id="w5wChOh7oLaNcaewbJr0-172" value="&lt;span style=&quot;font-weight: 400;&quot;&gt;id: BIGINT&lt;/span&gt;" style="shape=partialRectangle;connectable=0;fillColor=none;top=0;left=0;bottom=0;right=0;align=left;spacingLeft=6;fontStyle=5;overflow=hidden;html=1;whiteSpace=wrap;" parent="w5wChOh7oLaNcaewbJr0-170" vertex="1">
          <mxGeometry x="40" width="280" height="30" as="geometry">
            <mxRectangle width="280" height="30" as="alternateBounds" />
          </mxGeometry>
        </mxCell>
        <mxCell id="w5wChOh7oLaNcaewbJr0-173" value="" style="shape=tableRow;horizontal=0;startSize=0;swimlaneHead=0;swimlaneBody=0;fillColor=none;collapsible=0;dropTarget=0;points=[[0,0.5],[1,0.5]];portConstraint=eastwest;top=0;left=0;right=0;bottom=1;html=1;" parent="w5wChOh7oLaNcaewbJr0-169" vertex="1">
          <mxGeometry y="70" width="320" height="30" as="geometry" />
        </mxCell>
        <mxCell id="w5wChOh7oLaNcaewbJr0-174" value="FK" style="shape=partialRectangle;connectable=0;fillColor=none;top=0;left=0;bottom=0;right=0;fontStyle=1;overflow=hidden;html=1;whiteSpace=wrap;" parent="w5wChOh7oLaNcaewbJr0-173" vertex="1">
          <mxGeometry width="40" height="30" as="geometry">
            <mxRectangle width="40" height="30" as="alternateBounds" />
          </mxGeometry>
        </mxCell>
        <mxCell id="w5wChOh7oLaNcaewbJr0-175" value="&lt;span style=&quot;font-weight: 400;&quot;&gt;unit_id: BIGINT&lt;/span&gt;" style="shape=partialRectangle;connectable=0;fillColor=none;top=0;left=0;bottom=0;right=0;align=left;spacingLeft=6;fontStyle=5;overflow=hidden;html=1;whiteSpace=wrap;" parent="w5wChOh7oLaNcaewbJr0-173" vertex="1">
          <mxGeometry x="40" width="280" height="30" as="geometry">
            <mxRectangle width="280" height="30" as="alternateBounds" />
          </mxGeometry>
        </mxCell>
        <mxCell id="w5wChOh7oLaNcaewbJr0-176" value="" style="shape=tableRow;horizontal=0;startSize=0;swimlaneHead=0;swimlaneBody=0;fillColor=none;collapsible=0;dropTarget=0;points=[[0,0.5],[1,0.5]];portConstraint=eastwest;top=0;left=0;right=0;bottom=0;html=1;" parent="w5wChOh7oLaNcaewbJr0-169" vertex="1">
          <mxGeometry y="100" width="320" height="30" as="geometry" />
        </mxCell>
        <mxCell id="w5wChOh7oLaNcaewbJr0-177" value="" style="shape=partialRectangle;connectable=0;fillColor=none;top=0;left=0;bottom=0;right=0;editable=1;overflow=hidden;html=1;whiteSpace=wrap;" parent="w5wChOh7oLaNcaewbJr0-176" vertex="1">
          <mxGeometry width="40" height="30" as="geometry">
            <mxRectangle width="40" height="30" as="alternateBounds" />
          </mxGeometry>
        </mxCell>
        <mxCell id="w5wChOh7oLaNcaewbJr0-178" value="path: VARCHAR(1024) NOT NULL UNIQUE" style="shape=partialRectangle;connectable=0;fillColor=none;top=0;left=0;bottom=0;right=0;align=left;spacingLeft=6;overflow=hidden;html=1;whiteSpace=wrap;" parent="w5wChOh7oLaNcaewbJr0-176" vertex="1">
          <mxGeometry x="40" width="280" height="30" as="geometry">
            <mxRectangle width="280" height="30" as="alternateBounds" />
          </mxGeometry>
        </mxCell>
        <mxCell id="w5wChOh7oLaNcaewbJr0-187" value="" style="edgeStyle=elbowEdgeStyle;fontSize=12;html=1;endArrow=ERmandOne;startArrow=ERmandOne;rounded=0;" parent="1" source="w5wChOh7oLaNcaewbJr0-1" target="cSuiZXW0IyivlLcWfVJN-4" edge="1">
          <mxGeometry width="100" height="100" relative="1" as="geometry">
            <mxPoint x="-290" y="280" as="sourcePoint" />
            <mxPoint x="-190" y="580" as="targetPoint" />
            <Array as="points">
              <mxPoint x="-230" y="440" />
            </Array>
          </mxGeometry>
        </mxCell>
        <mxCell id="w5wChOh7oLaNcaewbJr0-190" value="" style="edgeStyle=entityRelationEdgeStyle;fontSize=12;html=1;endArrow=ERoneToMany;rounded=0;" parent="1" source="w5wChOh7oLaNcaewbJr0-71" target="w5wChOh7oLaNcaewbJr0-173" edge="1">
          <mxGeometry width="100" height="100" relative="1" as="geometry">
            <mxPoint x="610" y="400" as="sourcePoint" />
            <mxPoint x="330" y="300" as="targetPoint" />
          </mxGeometry>
        </mxCell>
        <mxCell id="cSuiZXW0IyivlLcWfVJN-24" value="" style="edgeStyle=entityRelationEdgeStyle;fontSize=12;html=1;endArrow=ERoneToMany;rounded=0;" parent="1" source="w5wChOh7oLaNcaewbJr0-119" target="w5wChOh7oLaNcaewbJr0-159" edge="1">
          <mxGeometry width="100" height="100" relative="1" as="geometry">
            <mxPoint x="-180" y="640" as="sourcePoint" />
            <mxPoint x="-260" y="720" as="targetPoint" />
          </mxGeometry>
        </mxCell>
        <mxCell id="cSuiZXW0IyivlLcWfVJN-25" value="" style="edgeStyle=entityRelationEdgeStyle;fontSize=12;html=1;endArrow=ERoneToMany;rounded=0;" parent="1" source="w5wChOh7oLaNcaewbJr0-119" target="w5wChOh7oLaNcaewbJr0-75" edge="1">
          <mxGeometry width="100" height="100" relative="1" as="geometry">
            <mxPoint x="130" y="590" as="sourcePoint" />
            <mxPoint x="230" y="490" as="targetPoint" />
          </mxGeometry>
        </mxCell>
        <mxCell id="cSuiZXW0IyivlLcWfVJN-26" value="" style="edgeStyle=entityRelationEdgeStyle;fontSize=12;html=1;endArrow=ERmandOne;startArrow=ERmandOne;rounded=0;" parent="1" source="w5wChOh7oLaNcaewbJr0-1" target="w5wChOh7oLaNcaewbJr0-116" edge="1">
          <mxGeometry width="100" height="100" relative="1" as="geometry">
            <mxPoint x="180" y="500" as="sourcePoint" />
            <mxPoint x="280" y="400" as="targetPoint" />
          </mxGeometry>
        </mxCell>
        <mxCell id="cSuiZXW0IyivlLcWfVJN-36" value="Banner" style="shape=table;startSize=40;container=1;collapsible=1;childLayout=tableLayout;fixedRows=1;rowLines=0;fontStyle=1;align=center;resizeLast=1;html=1;whiteSpace=wrap;fontSize=16;fillColor=#ffe6cc;strokeColor=#000000;rounded=1;" parent="1" vertex="1">
          <mxGeometry x="210" y="840" width="320" height="190" as="geometry" />
        </mxCell>
        <mxCell id="cSuiZXW0IyivlLcWfVJN-37" value="" style="shape=tableRow;horizontal=0;startSize=0;swimlaneHead=0;swimlaneBody=0;fillColor=none;collapsible=0;dropTarget=0;points=[[0,0.5],[1,0.5]];portConstraint=eastwest;top=0;left=0;right=0;bottom=0;html=1;" parent="cSuiZXW0IyivlLcWfVJN-36" vertex="1">
          <mxGeometry y="40" width="320" height="30" as="geometry" />
        </mxCell>
        <mxCell id="cSuiZXW0IyivlLcWfVJN-38" value="PK" style="shape=partialRectangle;connectable=0;fillColor=none;top=0;left=0;bottom=0;right=0;fontStyle=1;overflow=hidden;html=1;whiteSpace=wrap;" parent="cSuiZXW0IyivlLcWfVJN-37" vertex="1">
          <mxGeometry width="40" height="30" as="geometry">
            <mxRectangle width="40" height="30" as="alternateBounds" />
          </mxGeometry>
        </mxCell>
        <mxCell id="cSuiZXW0IyivlLcWfVJN-39" value="&lt;span style=&quot;font-weight: 400;&quot;&gt;id: BIGINT&lt;/span&gt;" style="shape=partialRectangle;connectable=0;fillColor=none;top=0;left=0;bottom=0;right=0;align=left;spacingLeft=6;fontStyle=5;overflow=hidden;html=1;whiteSpace=wrap;" parent="cSuiZXW0IyivlLcWfVJN-37" vertex="1">
          <mxGeometry x="40" width="280" height="30" as="geometry">
            <mxRectangle width="280" height="30" as="alternateBounds" />
          </mxGeometry>
        </mxCell>
        <mxCell id="cSuiZXW0IyivlLcWfVJN-40" value="" style="shape=tableRow;horizontal=0;startSize=0;swimlaneHead=0;swimlaneBody=0;fillColor=none;collapsible=0;dropTarget=0;points=[[0,0.5],[1,0.5]];portConstraint=eastwest;top=0;left=0;right=0;bottom=1;html=1;" parent="cSuiZXW0IyivlLcWfVJN-36" vertex="1">
          <mxGeometry y="70" width="320" height="30" as="geometry" />
        </mxCell>
        <mxCell id="cSuiZXW0IyivlLcWfVJN-41" value="FK" style="shape=partialRectangle;connectable=0;fillColor=none;top=0;left=0;bottom=0;right=0;fontStyle=1;overflow=hidden;html=1;whiteSpace=wrap;" parent="cSuiZXW0IyivlLcWfVJN-40" vertex="1">
          <mxGeometry width="40" height="30" as="geometry">
            <mxRectangle width="40" height="30" as="alternateBounds" />
          </mxGeometry>
        </mxCell>
        <mxCell id="cSuiZXW0IyivlLcWfVJN-42" value="&lt;span style=&quot;font-weight: 400;&quot;&gt;new_building_id: BIGINT&lt;/span&gt;" style="shape=partialRectangle;connectable=0;fillColor=none;top=0;left=0;bottom=0;right=0;align=left;spacingLeft=6;fontStyle=5;overflow=hidden;html=1;whiteSpace=wrap;" parent="cSuiZXW0IyivlLcWfVJN-40" vertex="1">
          <mxGeometry x="40" width="280" height="30" as="geometry">
            <mxRectangle width="280" height="30" as="alternateBounds" />
          </mxGeometry>
        </mxCell>
        <mxCell id="cSuiZXW0IyivlLcWfVJN-43" value="" style="shape=tableRow;horizontal=0;startSize=0;swimlaneHead=0;swimlaneBody=0;fillColor=none;collapsible=0;dropTarget=0;points=[[0,0.5],[1,0.5]];portConstraint=eastwest;top=0;left=0;right=0;bottom=0;html=1;" parent="cSuiZXW0IyivlLcWfVJN-36" vertex="1">
          <mxGeometry y="100" width="320" height="30" as="geometry" />
        </mxCell>
        <mxCell id="cSuiZXW0IyivlLcWfVJN-44" value="" style="shape=partialRectangle;connectable=0;fillColor=none;top=0;left=0;bottom=0;right=0;editable=1;overflow=hidden;html=1;whiteSpace=wrap;" parent="cSuiZXW0IyivlLcWfVJN-43" vertex="1">
          <mxGeometry width="40" height="30" as="geometry">
            <mxRectangle width="40" height="30" as="alternateBounds" />
          </mxGeometry>
        </mxCell>
        <mxCell id="cSuiZXW0IyivlLcWfVJN-45" value="path: VARCHAR(1024) NOT NULL UNIQUE" style="shape=partialRectangle;connectable=0;fillColor=none;top=0;left=0;bottom=0;right=0;align=left;spacingLeft=6;overflow=hidden;html=1;whiteSpace=wrap;" parent="cSuiZXW0IyivlLcWfVJN-43" vertex="1">
          <mxGeometry x="40" width="280" height="30" as="geometry">
            <mxRectangle width="280" height="30" as="alternateBounds" />
          </mxGeometry>
        </mxCell>
        <mxCell id="cSuiZXW0IyivlLcWfVJN-46" value="" style="shape=tableRow;horizontal=0;startSize=0;swimlaneHead=0;swimlaneBody=0;fillColor=none;collapsible=0;dropTarget=0;points=[[0,0.5],[1,0.5]];portConstraint=eastwest;top=0;left=0;right=0;bottom=0;html=1;" parent="cSuiZXW0IyivlLcWfVJN-36" vertex="1">
          <mxGeometry y="130" width="320" height="30" as="geometry" />
        </mxCell>
        <mxCell id="cSuiZXW0IyivlLcWfVJN-47" value="" style="shape=partialRectangle;connectable=0;fillColor=none;top=0;left=0;bottom=0;right=0;editable=1;overflow=hidden;html=1;whiteSpace=wrap;" parent="cSuiZXW0IyivlLcWfVJN-46" vertex="1">
          <mxGeometry width="40" height="30" as="geometry">
            <mxRectangle width="40" height="30" as="alternateBounds" />
          </mxGeometry>
        </mxCell>
        <mxCell id="cSuiZXW0IyivlLcWfVJN-48" value="type: VARCHAR" style="shape=partialRectangle;connectable=0;fillColor=none;top=0;left=0;bottom=0;right=0;align=left;spacingLeft=6;overflow=hidden;html=1;whiteSpace=wrap;" parent="cSuiZXW0IyivlLcWfVJN-46" vertex="1">
          <mxGeometry x="40" width="280" height="30" as="geometry">
            <mxRectangle width="280" height="30" as="alternateBounds" />
          </mxGeometry>
        </mxCell>
        <mxCell id="cSuiZXW0IyivlLcWfVJN-49" style="shape=tableRow;horizontal=0;startSize=0;swimlaneHead=0;swimlaneBody=0;fillColor=none;collapsible=0;dropTarget=0;points=[[0,0.5],[1,0.5]];portConstraint=eastwest;top=0;left=0;right=0;bottom=0;html=1;" parent="cSuiZXW0IyivlLcWfVJN-36" vertex="1">
          <mxGeometry y="160" width="320" height="30" as="geometry" />
        </mxCell>
        <mxCell id="cSuiZXW0IyivlLcWfVJN-50" style="shape=partialRectangle;connectable=0;fillColor=none;top=0;left=0;bottom=0;right=0;editable=1;overflow=hidden;html=1;whiteSpace=wrap;" parent="cSuiZXW0IyivlLcWfVJN-49" vertex="1">
          <mxGeometry width="40" height="30" as="geometry">
            <mxRectangle width="40" height="30" as="alternateBounds" />
          </mxGeometry>
        </mxCell>
        <mxCell id="cSuiZXW0IyivlLcWfVJN-51" value="is_main: BOOLEAN" style="shape=partialRectangle;connectable=0;fillColor=none;top=0;left=0;bottom=0;right=0;align=left;spacingLeft=6;overflow=hidden;html=1;whiteSpace=wrap;" parent="cSuiZXW0IyivlLcWfVJN-49" vertex="1">
          <mxGeometry x="40" width="280" height="30" as="geometry">
            <mxRectangle width="280" height="30" as="alternateBounds" />
          </mxGeometry>
        </mxCell>
        <mxCell id="cSuiZXW0IyivlLcWfVJN-55" value="" style="edgeStyle=entityRelationEdgeStyle;fontSize=12;html=1;endArrow=ERoneToMany;rounded=0;" parent="1" source="w5wChOh7oLaNcaewbJr0-119" target="cSuiZXW0IyivlLcWfVJN-40" edge="1">
          <mxGeometry width="100" height="100" relative="1" as="geometry">
            <mxPoint x="210" y="870" as="sourcePoint" />
            <mxPoint x="310" y="770" as="targetPoint" />
          </mxGeometry>
        </mxCell>
      </root>
    </mxGraphModel>
  </diagram>
</mxfile>
